<svg viewBox="0 0 120 28" xmlns="http://www.w3.org/2000/svg" xml:space="preserve" style="fill-rule:evenodd;clip-rule:evenodd;stroke-linejoin:round;stroke-miterlimit:2"><path d="M242.898 36.789c-4.482 14.529-10.958 16.95-17.151 16.95h-5.541V29.908h1.83c2.527 0 7.699-.137 8.431 8.615h2.778V17.935h-2.778c-.732 8.268-5.986 8.175-8.514 8.175h-1.747V2.582h4.971c8.88 0 14.422 6.523 16.703 15.353h2.65L244.163.341h-54.682v2.241h6.032v51.16h-6.032v2.232h55.416l.371-19.185h-2.37zM157.891 45.092c0 2.248-.163 7.656-6.356 7.656h-2.769V29.189h1.953c4.074 0 7.172 1.206 7.172 7.385v8.518zm-9.125-41.51h1.873c4.154 0 6.273 1.765 6.273 5.941v9.156c0 3.614-1.467 6.264-4.645 6.264h-3.501V3.582zm19.962 24.607c-1.709-.16-3.504-.32-5.214-.4v-1.606c7.986-.162 18.824-2.73 18.824-12.523 0-10.274-11.627-13.301-20.02-13.301L117.677.345l.006 2.237h6.143v51.171h-6.14l.004 2.225 35.863.006c11.328 0 30.171 1.103 30.171-14.791 0-8.507-7.416-12.281-14.996-13.004zM72.666 2.582h6.193v51.17h-6.193v2.222h37.65v-2.221h-6.194V2.582h6.194V.341h-37.65v2.241zM46.397 2.509h1.63c3.015 0 5.196.613 5.196 3.93v23.219L31.484.341H.036v2.088h1.702c2.527 0 3.448 1.819 4.997 3.825v39.859c0 3.693-.677 7.691-4.181 7.691H0v2.17h19.305v-2.17h-2.609c-3.911 0-4.243-3.998-4.243-7.691V13.994l30.439 41.98h16.131V12.191c0-5.968-.52-9.682 3.716-9.682h2.743V.341H46.397v2.168z" style="fill:#a81a1a;fill-rule:nonzero" transform="translate(.047 -.167) scale(.48888)"/></svg>